<!-- Owl artwork from UXWing (https://uxwing.com/owl-color-icon/)  free for commercial use -->
<svg xmlns="http://www.w3.org/2000/svg" shape-rendering="geometricPrecision" text-rendering="geometricPrecision" image-rendering="optimizeQuality" fill-rule="evenodd" clip-rule="evenodd" viewBox="0 0 502.001 511.931"><path fill="#571D00" fill-rule="nonzero" d="M386.184 256.085c22.774 21.806 41.441 43.195 58.756 65.606 19.054 24.66 36.469 50.545 55.944 79.599 1.836 2.738 1.343 6.358-1.012 8.523-17.287 15.987-48.823 31.558-78.023 40.263-24.074 7.177-47.1 9.636-60.613 4.003a151.754 151.754 0 01-30.843 30.235c-12.093 8.876-25.502 15.988-39.679 20.778-13.548 4.576-27.799 7.013-42.274 6.829a115.128 115.128 0 01-29.781-4.31c-9.696-2.719-19.261-6.715-28.683-11.993-20.548-10.474-36.852-24.693-49.411-41.456-13.542 5.525-36.453 3.056-60.407-4.086-29.199-8.705-60.736-24.276-78.027-40.258a6.605 6.605 0 01-.82-8.807c19.4-28.941 36.765-54.738 55.757-79.32 17.2-22.264 35.733-43.518 58.304-65.173a121.328 121.328 0 01-25.765-19.393c-11.169-11.018-20.179-24.185-26.35-38.78-11.702-27.681-13.179-60.419.171-93.278 3.409-8.398 7.998-16.403 13.823-23.989 4.716-6.141 10.239-12.003 16.602-17.566-4.518-8.122-8.862-16.673-12.687-25.264-4.173-9.369-7.76-18.798-10.336-27.794a6.784 6.784 0 014.668-8.379 6.761 6.761 0 015.357.717c10.075 6.092 21.764 12.137 34.338 17.599l.022.01c11.246 4.872 23.274 9.348 35.595 13.055 15.956-4.773 32.584-4.94 49.985-.914 16.493 3.819 33.677 11.432 51.648 22.477 13.698-9.919 28.983-17.301 46.017-21.466 16.913-4.136 35.468-5.08 55.792-2.17 12.637-3.719 24.818-7.982 36.431-12.898 11.986-5.075 23.377-10.859 34.059-17.476a6.766 6.766 0 019.308 2.202 6.758 6.758 0 01.499 6.124l-23.359 56.7c24.141 20.891 36.053 49.154 37.231 78.094.587 14.352-1.47 28.85-5.979 42.669a125.28 125.28 0 01-20.738 38.708c-9.512 12.051-21.421 22.544-35.52 30.579z"/><path fill="#9E522B" d="M136.662 448.698c-11.656 4.125-31.69 1.714-53.113-4.514 2.851-7.499 4.611-17.101 5.52-27.844 1.032-12.185.984-25.959.21-39.839a3.302 3.302 0 00-6.592.36c.755 13.547.801 27.005-.21 38.937-.876 10.358-2.543 19.486-5.22 26.378l-.029.075a260.593 260.593 0 01-25.402-9.677 137.102 137.102 0 006.796-25.573c1.505-9.167 2.053-18.349 1.779-27.529a3.298 3.298 0 00-6.592.181c.262 8.755-.262 17.524-1.702 26.289a130.412 130.412 0 01-6.295 23.879c-15.628-7.401-29.707-16.078-39.211-24.861 36.415-54.323 65.582-97.506 111.664-142.087-3.467 10.948-6.185 21.927-8.146 32.931a244.621 244.621 0 00-3.807 42.443c-.083 33.879 6.475 67.308 21.555 95.822a154.044 154.044 0 008.795 14.629zM379.08 258.412c48.807 46.179 78.7 90.416 116.327 146.548-9.424 8.708-23.346 17.312-38.815 24.672a130.473 130.473 0 01-6.225-23.69c-1.44-8.765-1.964-17.534-1.702-26.289a3.298 3.298 0 00-6.592-.181c-.274 9.18.274 18.362 1.779 27.529a137.11 137.11 0 006.729 25.398 261.082 261.082 0 01-25.387 9.717c-2.664-6.886-4.325-15.99-5.197-26.318-1.011-11.932-.966-25.39-.211-38.937a3.302 3.302 0 00-6.592-.36c-.773 13.88-.822 27.654.211 39.839.903 10.684 2.651 20.24 5.473 27.721-21.662 6.342-41.952 8.804-53.665 4.585a161.13 161.13 0 005.669-8.682c11.176-18.37 18.77-38.894 23.532-60.603 4.715-21.483 5.72-42.936 2.69-64.272-2.703-19.031-8.635-37.945-18.024-56.677z"/><path fill="#F7C6A3" d="M373.66 262.309c18.775 37.975 22.844 76.7 14.295 115.657-8.843 40.292-27.63 76.188-61.464 101.024-22.616 16.598-49.898 26.702-77.975 26.341-18.892-.24-37.393-5.411-55.493-15.578-57.627-29.345-80.274-89.533-80.121-151.506.064-25.716 4.329-51.252 12.705-76.606 1.109.491 2.23.966 3.358 1.424 25.604 10.4 55.634 12.305 86.605 2.018l27.821 63.539a6.78 6.78 0 003.326 3.521 6.806 6.806 0 009.085-3.171l30.785-63.34c4.862 1.896 9.816 3.507 14.869 4.726 7.858 1.896 15.948 2.858 24.274 2.521 17.699-.722 33.732-4.484 47.93-10.57z"/><path fill="#9E522B" d="M102.514 65.084C92.341 47.462 82.677 27.191 77.354 8.598c19.757 11.955 45.994 23.864 73.511 31.938 30.733-9.985 64.404-1.28 101.926 22.679 26.926-20.869 60.42-31.197 101.893-24.911 26.812-7.783 51.65-17.935 73.61-31.54L403.036 68.06c75.954 59.952 34.933 193.468-77.571 198.057-13.201.538-25.792-2.488-37.841-7.349-3.48-9.716-11.119-16.757-20.287-20.568-4.663-1.938-9.763-3.042-14.923-3.225-5.184-.186-10.414.554-15.309 2.297-9.248 3.294-17.372 10.059-21.963 20.801-96.256 33.365-183.09-57.762-145.43-150.46 6.377-15.695 17.153-29.925 32.802-42.529z"/><path fill="#632607" fill-rule="nonzero" d="M174.6 81.863c18.956 0 36.122 7.686 48.545 20.108 12.423 12.424 20.109 29.589 20.109 48.544 0 18.956-7.686 36.122-20.109 48.545-12.423 12.423-29.591 20.109-48.545 20.109-18.957 0-36.121-7.686-48.544-20.109-12.423-12.423-20.109-29.589-20.109-48.545 0-18.955 7.686-36.12 20.109-48.544 12.423-12.422 29.589-20.108 48.544-20.108zM325.109 81.863c18.955 0 36.122 7.686 48.544 20.108 12.424 12.424 20.11 29.589 20.11 48.544 0 18.956-7.686 36.122-20.11 48.545-12.422 12.423-29.587 20.109-48.544 20.109-18.955 0-36.12-7.686-48.544-20.109-12.422-12.423-20.108-29.589-20.108-48.545 0-18.955 7.686-36.12 20.109-48.544 12.423-12.422 29.588-20.108 48.543-20.108z"/><path fill="#F7C6A3" d="M325.109 88.652c34.168 0 61.865 27.697 61.865 61.863 0 34.168-27.697 61.865-61.865 61.865-34.166 0-61.863-27.697-61.863-61.865 0-34.166 27.697-61.863 61.863-61.863zm-150.509 0c34.168 0 61.866 27.697 61.866 61.863 0 34.168-27.698 61.865-61.866 61.865-34.167 0-61.865-27.697-61.865-61.865 0-34.166 27.698-61.863 61.865-61.863z"/><path fill="#632607" d="M325.109 129.493c11.992 0 21.715 9.723 21.715 21.716 0 11.991-9.723 21.714-21.715 21.714-11.993 0-21.714-9.723-21.714-21.714 0-11.993 9.721-21.716 21.714-21.716zM174.6 129.493c11.993 0 21.714 9.723 21.714 21.716 0 11.991-9.721 21.714-21.714 21.714-11.992 0-21.715-9.723-21.715-21.714 0-11.993 9.723-21.716 21.715-21.716z"/><path fill="#F9BD54" d="M249.674 326.015l-28.426-64.919c11.603-27.904 51.572-23.609 59.978 0l-31.552 64.919z"/></svg>
