<svg xmlns="http://www.w3.org/2000/svg" viewBox="0 0 1024 1024" fill="none">
  <defs>
    <linearGradient id="bg" x1="512" y1="64" x2="512" y2="960" gradientUnits="userSpaceOnUse">
      <stop stop-color="#8a8a8a"/>
      <stop offset="1" stop-color="#5c5c5c"/>
    </linearGradient>
  </defs>
  <!-- macOS app icon silhouette -->
  <path
    fill="url(#bg)"
    d="M224 64h576c82.5 0 128 45.5 128 128v576c0 82.5-45.5 128-128 128H224c-82.5 0-128-45.5-128-128V192C96 109.5 141.5 64 224 64z"
  />
  <!-- ear tufts -->
  <path fill="#6b6b6b" d="M312 268 384 148 456 272Z"/>
  <path fill="#6b6b6b" d="M712 268 640 148 568 272Z"/>
  <!-- face -->
  <ellipse cx="512" cy="520" rx="248" ry="220" fill="#9ca3af"/>
  <!-- eyes -->
  <circle cx="416" cy="492" r="78" fill="#f5f5f5"/>
  <circle cx="608" cy="492" r="78" fill="#f5f5f5"/>
  <circle cx="428" cy="502" r="34" fill="#262626"/>
  <circle cx="620" cy="502" r="34" fill="#262626"/>
  <circle cx="440" cy="484" r="10" fill="#f5f5f5"/>
  <circle cx="632" cy="484" r="10" fill="#f5f5f5"/>
  <!-- beak -->
  <path fill="#737373" d="M512 556 476 620h72Z"/>
  <!-- chest -->
  <path fill="#737373" d="M512 668c-68 0-120 28-120 56v20h240v-20c0-28-52-56-120-56Z"/>
</svg>
